<svg xmlns="http://www.w3.org/2000/svg" version="1.1" xmlns:xlink="http://www.w3.org/1999/xlink" xmlns:svgjs="http://svgjs.com/svgjs" width="1280" height="720" preserveAspectRatio="none" viewBox="0 0 1280 720">
    <g mask="url(&quot;#SvgjsMask1032&quot;)" fill="none">
        <path d="M-90.42 537.58L-90.42 537.58" stroke="rgba(41, 46, 55, 1)" stroke-width="1.5"></path>
        <path d="M-90.42 537.58L-46.58 710.91" stroke="rgba(41, 46, 55, 1)" stroke-width="1.5"></path>
        <path d="M-90.42 537.58L41.16 710.2" stroke="rgba(41, 46, 55, 1)" stroke-width="1.5"></path>
        <path d="M-90.42 537.58L-52.91 809.04" stroke="rgba(41, 46, 55, 1)" stroke-width="1.5"></path>
        <path d="M-46.58 710.91L-46.58 710.91" stroke="rgba(41, 46, 55, 1)" stroke-width="1.5"></path>
        <path d="M-46.58 710.91L41.16 710.2" stroke="rgba(41, 46, 55, 1)" stroke-width="1.5"></path>
        <path d="M-52.91 809.04L-52.91 809.04" stroke="rgba(41, 46, 55, 1)" stroke-width="1.5"></path>
        <path d="M-52.91 809.04L-46.58 710.91" stroke="rgba(41, 46, 55, 1)" stroke-width="1.5"></path>
        <path d="M-52.91 809.04L40.22 861.35" stroke="rgba(41, 46, 55, 1)" stroke-width="1.5"></path>
        <path d="M-52.91 809.04L41.16 710.2" stroke="rgba(41, 46, 55, 1)" stroke-width="1.5"></path>
        <path d="M-52.91 809.04L198.16 845.88" stroke="rgba(41, 46, 55, 1)" stroke-width="1.5"></path>
        <path d="M-52.91 809.04L208.73 710.41" stroke="rgba(41, 46, 55, 1)" stroke-width="1.5"></path>
        <path d="M41.16 710.2L41.16 710.2" stroke="rgba(41, 46, 55, 1)" stroke-width="1.5"></path>
        <path d="M41.16 710.2L40.22 861.35" stroke="rgba(41, 46, 55, 1)" stroke-width="1.5"></path>
        <path d="M41.16 710.2L208.73 710.41" stroke="rgba(41, 46, 55, 1)" stroke-width="1.5"></path>
        <path d="M41.16 710.2L198.16 845.88" stroke="rgba(41, 46, 55, 1)" stroke-width="1.5"></path>
        <path d="M40.22 861.35L40.22 861.35" stroke="rgba(41, 46, 55, 1)" stroke-width="1.5"></path>
        <path d="M40.22 861.35L198.16 845.88" stroke="rgba(41, 46, 55, 1)" stroke-width="1.5"></path>
        <path d="M243.64 525.08L243.64 525.08" stroke="rgba(41, 46, 55, 1)" stroke-width="1.5"></path>
        <path d="M243.64 525.08L361.52 510.54" stroke="rgba(41, 46, 55, 1)" stroke-width="1.5"></path>
        <path d="M243.64 525.08L343.31 391.17" stroke="rgba(41, 46, 55, 1)" stroke-width="1.5"></path>
        <path d="M243.64 525.08L208.73 710.41" stroke="rgba(41, 46, 55, 1)" stroke-width="1.5"></path>
        <path d="M243.64 525.08L396.82 673.18" stroke="rgba(41, 46, 55, 1)" stroke-width="1.5"></path>
        <path d="M208.73 710.41L208.73 710.41" stroke="rgba(41, 46, 55, 1)" stroke-width="1.5"></path>
        <path d="M208.73 710.41L198.16 845.88" stroke="rgba(41, 46, 55, 1)" stroke-width="1.5"></path>
        <path d="M208.73 710.41L359.37 818.08" stroke="rgba(41, 46, 55, 1)" stroke-width="1.5"></path>
        <path d="M198.16 845.88L198.16 845.88" stroke="rgba(41, 46, 55, 1)" stroke-width="1.5"></path>
        <path d="M343.31 391.17L343.31 391.17" stroke="rgba(41, 46, 55, 1)" stroke-width="1.5"></path>
        <path d="M343.31 391.17L361.52 510.54" stroke="rgba(41, 46, 55, 1)" stroke-width="1.5"></path>
        <path d="M343.31 391.17L528.36 407.73" stroke="rgba(41, 46, 55, 1)" stroke-width="1.5"></path>
        <path d="M343.31 391.17L396.82 673.18" stroke="rgba(41, 46, 55, 1)" stroke-width="1.5"></path>
        <path d="M343.31 391.17L657.51 487.59" stroke="rgba(41, 46, 55, 1)" stroke-width="1.5"></path>
        <path d="M343.31 391.17L673.69 360.94" stroke="rgba(41, 46, 55, 1)" stroke-width="1.5"></path>
        <path d="M361.52 510.54L361.52 510.54" stroke="rgba(41, 46, 55, 1)" stroke-width="1.5"></path>
        <path d="M361.52 510.54L396.82 673.18" stroke="rgba(41, 46, 55, 1)" stroke-width="1.5"></path>
        <path d="M361.52 510.54L528.36 407.73" stroke="rgba(41, 46, 55, 1)" stroke-width="1.5"></path>
        <path d="M361.52 510.54L208.73 710.41" stroke="rgba(41, 46, 55, 1)" stroke-width="1.5"></path>
        <path d="M361.52 510.54L561.11 688.37" stroke="rgba(41, 46, 55, 1)" stroke-width="1.5"></path>
        <path d="M396.82 673.18L396.82 673.18" stroke="rgba(41, 46, 55, 1)" stroke-width="1.5"></path>
        <path d="M396.82 673.18L359.37 818.08" stroke="rgba(41, 46, 55, 1)" stroke-width="1.5"></path>
        <path d="M359.37 818.08L359.37 818.08" stroke="rgba(41, 46, 55, 1)" stroke-width="1.5"></path>
        <path d="M359.37 818.08L505.87 855.7" stroke="rgba(41, 46, 55, 1)" stroke-width="1.5"></path>
        <path d="M359.37 818.08L198.16 845.88" stroke="rgba(41, 46, 55, 1)" stroke-width="1.5"></path>
        <path d="M359.37 818.08L561.11 688.37" stroke="rgba(41, 46, 55, 1)" stroke-width="1.5"></path>
        <path d="M528.36 407.73L528.36 407.73" stroke="rgba(41, 46, 55, 1)" stroke-width="1.5"></path>
        <path d="M528.36 407.73L657.51 487.59" stroke="rgba(41, 46, 55, 1)" stroke-width="1.5"></path>
        <path d="M528.36 407.73L673.69 360.94" stroke="rgba(41, 46, 55, 1)" stroke-width="1.5"></path>
        <path d="M561.11 688.37L561.11 688.37" stroke="rgba(41, 46, 55, 1)" stroke-width="1.5"></path>
        <path d="M561.11 688.37L671.54 650.57" stroke="rgba(41, 46, 55, 1)" stroke-width="1.5"></path>
        <path d="M561.11 688.37L396.82 673.18" stroke="rgba(41, 46, 55, 1)" stroke-width="1.5"></path>
        <path d="M561.11 688.37L505.87 855.7" stroke="rgba(41, 46, 55, 1)" stroke-width="1.5"></path>
        <path d="M561.11 688.37L691.15 849.08" stroke="rgba(41, 46, 55, 1)" stroke-width="1.5"></path>
        <path d="M561.11 688.37L657.51 487.59" stroke="rgba(41, 46, 55, 1)" stroke-width="1.5"></path>
        <path d="M505.87 855.7L505.87 855.7" stroke="rgba(41, 46, 55, 1)" stroke-width="1.5"></path>
        <path d="M673.69 360.94L673.69 360.94" stroke="rgba(41, 46, 55, 1)" stroke-width="1.5"></path>
        <path d="M673.69 360.94L657.51 487.59" stroke="rgba(41, 46, 55, 1)" stroke-width="1.5"></path>
        <path d="M673.69 360.94L802.51 402.35" stroke="rgba(41, 46, 55, 1)" stroke-width="1.5"></path>
        <path d="M657.51 487.59L657.51 487.59" stroke="rgba(41, 46, 55, 1)" stroke-width="1.5"></path>
        <path d="M657.51 487.59L789.31 535.62" stroke="rgba(41, 46, 55, 1)" stroke-width="1.5"></path>
        <path d="M657.51 487.59L671.54 650.57" stroke="rgba(41, 46, 55, 1)" stroke-width="1.5"></path>
        <path d="M671.54 650.57L671.54 650.57" stroke="rgba(41, 46, 55, 1)" stroke-width="1.5"></path>
        <path d="M671.54 650.57L799.15 667.51" stroke="rgba(41, 46, 55, 1)" stroke-width="1.5"></path>
        <path d="M691.15 849.08L691.15 849.08" stroke="rgba(41, 46, 55, 1)" stroke-width="1.5"></path>
        <path d="M691.15 849.08L813.91 847.78" stroke="rgba(41, 46, 55, 1)" stroke-width="1.5"></path>
        <path d="M691.15 849.08L505.87 855.7" stroke="rgba(41, 46, 55, 1)" stroke-width="1.5"></path>
        <path d="M819.65 -69.43L819.65 -69.43" stroke="rgba(41, 46, 55, 1)" stroke-width="1.5"></path>
        <path d="M819.65 -69.43L958.23 -47.01" stroke="rgba(41, 46, 55, 1)" stroke-width="1.5"></path>
        <path d="M819.65 -69.43L827.76 83.57" stroke="rgba(41, 46, 55, 1)" stroke-width="1.5"></path>
        <path d="M819.65 -69.43L970.86 47.28" stroke="rgba(41, 46, 55, 1)" stroke-width="1.5"></path>
        <path d="M827.76 83.57L827.76 83.57" stroke="rgba(41, 46, 55, 1)" stroke-width="1.5"></path>
        <path d="M827.76 83.57L970.86 47.28" stroke="rgba(41, 46, 55, 1)" stroke-width="1.5"></path>
        <path d="M827.76 83.57L813.63 233.25" stroke="rgba(41, 46, 55, 1)" stroke-width="1.5"></path>
        <path d="M827.76 83.57L958.23 -47.01" stroke="rgba(41, 46, 55, 1)" stroke-width="1.5"></path>
        <path d="M813.63 233.25L813.63 233.25" stroke="rgba(41, 46, 55, 1)" stroke-width="1.5"></path>
        <path d="M813.63 233.25L962.77 251.09" stroke="rgba(41, 46, 55, 1)" stroke-width="1.5"></path>
        <path d="M813.63 233.25L802.51 402.35" stroke="rgba(41, 46, 55, 1)" stroke-width="1.5"></path>
        <path d="M813.63 233.25L673.69 360.94" stroke="rgba(41, 46, 55, 1)" stroke-width="1.5"></path>
        <path d="M813.63 233.25L966.83 396.95" stroke="rgba(41, 46, 55, 1)" stroke-width="1.5"></path>
        <path d="M813.63 233.25L970.86 47.28" stroke="rgba(41, 46, 55, 1)" stroke-width="1.5"></path>
        <path d="M802.51 402.35L802.51 402.35" stroke="rgba(41, 46, 55, 1)" stroke-width="1.5"></path>
        <path d="M802.51 402.35L789.31 535.62" stroke="rgba(41, 46, 55, 1)" stroke-width="1.5"></path>
        <path d="M802.51 402.35L966.83 396.95" stroke="rgba(41, 46, 55, 1)" stroke-width="1.5"></path>
        <path d="M802.51 402.35L657.51 487.59" stroke="rgba(41, 46, 55, 1)" stroke-width="1.5"></path>
        <path d="M789.31 535.62L789.31 535.62" stroke="rgba(41, 46, 55, 1)" stroke-width="1.5"></path>
        <path d="M789.31 535.62L799.15 667.51" stroke="rgba(41, 46, 55, 1)" stroke-width="1.5"></path>
        <path d="M799.15 667.51L799.15 667.51" stroke="rgba(41, 46, 55, 1)" stroke-width="1.5"></path>
        <path d="M799.15 667.51L813.91 847.78" stroke="rgba(41, 46, 55, 1)" stroke-width="1.5"></path>
        <path d="M799.15 667.51L691.15 849.08" stroke="rgba(41, 46, 55, 1)" stroke-width="1.5"></path>
        <path d="M799.15 667.51L947.2 498.86" stroke="rgba(41, 46, 55, 1)" stroke-width="1.5"></path>
        <path d="M813.91 847.78L813.91 847.78" stroke="rgba(41, 46, 55, 1)" stroke-width="1.5"></path>
        <path d="M813.91 847.78L998.31 861.91" stroke="rgba(41, 46, 55, 1)" stroke-width="1.5"></path>
        <path d="M813.91 847.78L671.54 650.57" stroke="rgba(41, 46, 55, 1)" stroke-width="1.5"></path>
        <path d="M958.23 -47.01L958.23 -47.01" stroke="rgba(41, 46, 55, 1)" stroke-width="1.5"></path>
        <path d="M958.23 -47.01L970.86 47.28" stroke="rgba(41, 46, 55, 1)" stroke-width="1.5"></path>
        <path d="M970.86 47.28L970.86 47.28" stroke="rgba(41, 46, 55, 1)" stroke-width="1.5"></path>
        <path d="M962.77 251.09L962.77 251.09" stroke="rgba(41, 46, 55, 1)" stroke-width="1.5"></path>
        <path d="M962.77 251.09L1092.77 260.55" stroke="rgba(41, 46, 55, 1)" stroke-width="1.5"></path>
        <path d="M962.77 251.09L966.83 396.95" stroke="rgba(41, 46, 55, 1)" stroke-width="1.5"></path>
        <path d="M962.77 251.09L970.86 47.28" stroke="rgba(41, 46, 55, 1)" stroke-width="1.5"></path>
        <path d="M962.77 251.09L827.76 83.57" stroke="rgba(41, 46, 55, 1)" stroke-width="1.5"></path>
        <path d="M966.83 396.95L966.83 396.95" stroke="rgba(41, 46, 55, 1)" stroke-width="1.5"></path>
        <path d="M966.83 396.95L947.2 498.86" stroke="rgba(41, 46, 55, 1)" stroke-width="1.5"></path>
        <path d="M947.2 498.86L947.2 498.86" stroke="rgba(41, 46, 55, 1)" stroke-width="1.5"></path>
        <path d="M947.2 498.86L1090.13 550.09" stroke="rgba(41, 46, 55, 1)" stroke-width="1.5"></path>
        <path d="M947.2 498.86L789.31 535.62" stroke="rgba(41, 46, 55, 1)" stroke-width="1.5"></path>
        <path d="M947.2 498.86L802.51 402.35" stroke="rgba(41, 46, 55, 1)" stroke-width="1.5"></path>
        <path d="M947.2 498.86L1123.62 653.24" stroke="rgba(41, 46, 55, 1)" stroke-width="1.5"></path>
        <path d="M998.31 861.91L998.31 861.91" stroke="rgba(41, 46, 55, 1)" stroke-width="1.5"></path>
        <path d="M998.31 861.91L1154.81 814.32" stroke="rgba(41, 46, 55, 1)" stroke-width="1.5"></path>
        <path d="M998.31 861.91L1123.62 653.24" stroke="rgba(41, 46, 55, 1)" stroke-width="1.5"></path>
        <path d="M1118.65 -54.96L1118.65 -54.96" stroke="rgba(41, 46, 55, 1)" stroke-width="1.5"></path>
        <path d="M1118.65 -54.96L1145.33 61.97" stroke="rgba(41, 46, 55, 1)" stroke-width="1.5"></path>
        <path d="M1118.65 -54.96L958.23 -47.01" stroke="rgba(41, 46, 55, 1)" stroke-width="1.5"></path>
        <path d="M1118.65 -54.96L1278.83 -68.87" stroke="rgba(41, 46, 55, 1)" stroke-width="1.5"></path>
        <path d="M1145.33 61.97L1145.33 61.97" stroke="rgba(41, 46, 55, 1)" stroke-width="1.5"></path>
        <path d="M1145.33 61.97L1285.98 77.03" stroke="rgba(41, 46, 55, 1)" stroke-width="1.5"></path>
        <path d="M1145.33 61.97L970.86 47.28" stroke="rgba(41, 46, 55, 1)" stroke-width="1.5"></path>
        <path d="M1145.33 61.97L1278.83 -68.87" stroke="rgba(41, 46, 55, 1)" stroke-width="1.5"></path>
        <path d="M1145.33 61.97L1247.91 221.99" stroke="rgba(41, 46, 55, 1)" stroke-width="1.5"></path>
        <path d="M1145.33 61.97L1092.77 260.55" stroke="rgba(41, 46, 55, 1)" stroke-width="1.5"></path>
        <path d="M1092.77 260.55L1092.77 260.55" stroke="rgba(41, 46, 55, 1)" stroke-width="1.5"></path>
        <path d="M1092.77 260.55L1247.91 221.99" stroke="rgba(41, 46, 55, 1)" stroke-width="1.5"></path>
        <path d="M1090.13 550.09L1090.13 550.09" stroke="rgba(41, 46, 55, 1)" stroke-width="1.5"></path>
        <path d="M1090.13 550.09L1123.62 653.24" stroke="rgba(41, 46, 55, 1)" stroke-width="1.5"></path>
        <path d="M1090.13 550.09L966.83 396.95" stroke="rgba(41, 46, 55, 1)" stroke-width="1.5"></path>
        <path d="M1090.13 550.09L1266.65 672.18" stroke="rgba(41, 46, 55, 1)" stroke-width="1.5"></path>
        <path d="M1090.13 550.09L1308.5 557.07" stroke="rgba(41, 46, 55, 1)" stroke-width="1.5"></path>
        <path d="M1123.62 653.24L1123.62 653.24" stroke="rgba(41, 46, 55, 1)" stroke-width="1.5"></path>
        <path d="M1123.62 653.24L1266.65 672.18" stroke="rgba(41, 46, 55, 1)" stroke-width="1.5"></path>
        <path d="M1123.62 653.24L1154.81 814.32" stroke="rgba(41, 46, 55, 1)" stroke-width="1.5"></path>
        <path d="M1154.81 814.32L1154.81 814.32" stroke="rgba(41, 46, 55, 1)" stroke-width="1.5"></path>
        <path d="M1154.81 814.32L1311.16 856.65" stroke="rgba(41, 46, 55, 1)" stroke-width="1.5"></path>
        <path d="M1278.83 -68.87L1278.83 -68.87" stroke="rgba(41, 46, 55, 1)" stroke-width="1.5"></path>
        <path d="M1278.83 -68.87L1405.12 -79.31" stroke="rgba(41, 46, 55, 1)" stroke-width="1.5"></path>
        <path d="M1278.83 -68.87L1285.98 77.03" stroke="rgba(41, 46, 55, 1)" stroke-width="1.5"></path>
        <path d="M1285.98 77.03L1285.98 77.03" stroke="rgba(41, 46, 55, 1)" stroke-width="1.5"></path>
        <path d="M1285.98 77.03L1247.91 221.99" stroke="rgba(41, 46, 55, 1)" stroke-width="1.5"></path>
        <path d="M1285.98 77.03L1460.89 81.25" stroke="rgba(41, 46, 55, 1)" stroke-width="1.5"></path>
        <path d="M1247.91 221.99L1247.91 221.99" stroke="rgba(41, 46, 55, 1)" stroke-width="1.5"></path>
        <path d="M1247.91 221.99L1263.7 358.01" stroke="rgba(41, 46, 55, 1)" stroke-width="1.5"></path>
        <path d="M1263.7 358.01L1263.7 358.01" stroke="rgba(41, 46, 55, 1)" stroke-width="1.5"></path>
        <path d="M1263.7 358.01L1414.56 385.77" stroke="rgba(41, 46, 55, 1)" stroke-width="1.5"></path>
        <path d="M1263.7 358.01L1092.77 260.55" stroke="rgba(41, 46, 55, 1)" stroke-width="1.5"></path>
        <path d="M1263.7 358.01L1308.5 557.07" stroke="rgba(41, 46, 55, 1)" stroke-width="1.5"></path>
        <path d="M1308.5 557.07L1308.5 557.07" stroke="rgba(41, 46, 55, 1)" stroke-width="1.5"></path>
        <path d="M1308.5 557.07L1427.01 545.7" stroke="rgba(41, 46, 55, 1)" stroke-width="1.5"></path>
        <path d="M1308.5 557.07L1266.65 672.18" stroke="rgba(41, 46, 55, 1)" stroke-width="1.5"></path>
        <path d="M1308.5 557.07L1414.56 385.77" stroke="rgba(41, 46, 55, 1)" stroke-width="1.5"></path>
        <path d="M1266.65 672.18L1266.65 672.18" stroke="rgba(41, 46, 55, 1)" stroke-width="1.5"></path>
        <path d="M1311.16 856.65L1311.16 856.65" stroke="rgba(41, 46, 55, 1)" stroke-width="1.5"></path>
        <path d="M1311.16 856.65L1414.44 828.2" stroke="rgba(41, 46, 55, 1)" stroke-width="1.5"></path>
        <path d="M1311.16 856.65L1266.65 672.18" stroke="rgba(41, 46, 55, 1)" stroke-width="1.5"></path>
        <path d="M1405.12 -79.31L1405.12 -79.31" stroke="rgba(41, 46, 55, 1)" stroke-width="1.5"></path>
        <path d="M1405.12 -79.31L1460.89 81.25" stroke="rgba(41, 46, 55, 1)" stroke-width="1.5"></path>
        <path d="M1405.12 -79.31L1285.98 77.03" stroke="rgba(41, 46, 55, 1)" stroke-width="1.5"></path>
        <path d="M1405.12 -79.31L1118.65 -54.96" stroke="rgba(41, 46, 55, 1)" stroke-width="1.5"></path>
        <path d="M1460.89 81.25L1460.89 81.25" stroke="rgba(41, 46, 55, 1)" stroke-width="1.5"></path>
        <path d="M1460.89 81.25L1452.38 242.27" stroke="rgba(41, 46, 55, 1)" stroke-width="1.5"></path>
        <path d="M1460.89 81.25L1278.83 -68.87" stroke="rgba(41, 46, 55, 1)" stroke-width="1.5"></path>
        <path d="M1460.89 81.25L1247.91 221.99" stroke="rgba(41, 46, 55, 1)" stroke-width="1.5"></path>
        <path d="M1452.38 242.27L1452.38 242.27" stroke="rgba(41, 46, 55, 1)" stroke-width="1.5"></path>
        <path d="M1452.38 242.27L1414.56 385.77" stroke="rgba(41, 46, 55, 1)" stroke-width="1.5"></path>
        <path d="M1452.38 242.27L1247.91 221.99" stroke="rgba(41, 46, 55, 1)" stroke-width="1.5"></path>
        <path d="M1414.56 385.77L1414.56 385.77" stroke="rgba(41, 46, 55, 1)" stroke-width="1.5"></path>
        <path d="M1427.01 545.7L1427.01 545.7" stroke="rgba(41, 46, 55, 1)" stroke-width="1.5"></path>
        <path d="M1427.01 545.7L1414.56 385.77" stroke="rgba(41, 46, 55, 1)" stroke-width="1.5"></path>
        <path d="M1427.01 545.7L1447.85 710.09" stroke="rgba(41, 46, 55, 1)" stroke-width="1.5"></path>
        <path d="M1427.01 545.7L1266.65 672.18" stroke="rgba(41, 46, 55, 1)" stroke-width="1.5"></path>
        <path d="M1427.01 545.7L1263.7 358.01" stroke="rgba(41, 46, 55, 1)" stroke-width="1.5"></path>
        <path d="M1447.85 710.09L1447.85 710.09" stroke="rgba(41, 46, 55, 1)" stroke-width="1.5"></path>
        <path d="M1447.85 710.09L1414.44 828.2" stroke="rgba(41, 46, 55, 1)" stroke-width="1.5"></path>
        <path d="M1414.44 828.2L1414.44 828.2" stroke="rgba(41, 46, 55, 1)" stroke-width="1.5"></path>
        <circle r="5" cx="-90.42" cy="537.58" fill="rgba(41, 46, 55, 1)"></circle>
        <circle r="5" cx="-46.58" cy="710.91" fill="rgba(41, 46, 55, 1)"></circle>
        <circle r="5" cx="-52.91" cy="809.04" fill="rgba(41, 46, 55, 1)"></circle>
        <circle r="5" cx="41.16" cy="710.2" fill="rgba(41, 46, 55, 1)"></circle>
        <circle r="5" cx="40.22" cy="861.35" fill="rgba(41, 46, 55, 1)"></circle>
        <circle r="5" cx="243.64" cy="525.08" fill="rgba(41, 46, 55, 1)"></circle>
        <circle r="5" cx="208.73" cy="710.41" fill="rgba(41, 46, 55, 1)"></circle>
        <circle r="5" cx="198.16" cy="845.88" fill="rgba(41, 46, 55, 1)"></circle>
        <circle r="5" cx="343.31" cy="391.17" fill="rgba(41, 46, 55, 1)"></circle>
        <circle r="5" cx="361.52" cy="510.54" fill="rgba(41, 46, 55, 1)"></circle>
        <circle r="5" cx="396.82" cy="673.18" fill="rgba(41, 46, 55, 1)"></circle>
        <circle r="5" cx="359.37" cy="818.08" fill="rgba(41, 46, 55, 1)"></circle>
        <circle r="5" cx="528.36" cy="407.73" fill="rgba(41, 46, 55, 1)"></circle>
        <circle r="5" cx="561.11" cy="688.37" fill="rgba(41, 46, 55, 1)"></circle>
        <circle r="5" cx="505.87" cy="855.7" fill="rgba(41, 46, 55, 1)"></circle>
        <circle r="5" cx="673.69" cy="360.94" fill="rgba(41, 46, 55, 1)"></circle>
        <circle r="5" cx="657.51" cy="487.59" fill="rgba(41, 46, 55, 1)"></circle>
        <circle r="5" cx="671.54" cy="650.57" fill="rgba(41, 46, 55, 1)"></circle>
        <circle r="5" cx="691.15" cy="849.08" fill="rgba(41, 46, 55, 1)"></circle>
        <circle r="5" cx="819.65" cy="-69.43" fill="rgba(41, 46, 55, 1)"></circle>
        <circle r="5" cx="827.76" cy="83.57" fill="rgba(41, 46, 55, 1)"></circle>
        <circle r="5" cx="813.63" cy="233.25" fill="rgba(41, 46, 55, 1)"></circle>
        <circle r="5" cx="802.51" cy="402.35" fill="rgba(41, 46, 55, 1)"></circle>
        <circle r="5" cx="789.31" cy="535.62" fill="rgba(41, 46, 55, 1)"></circle>
        <circle r="5" cx="799.15" cy="667.51" fill="rgba(41, 46, 55, 1)"></circle>
        <circle r="5" cx="813.91" cy="847.78" fill="rgba(41, 46, 55, 1)"></circle>
        <circle r="5" cx="958.23" cy="-47.01" fill="rgba(41, 46, 55, 1)"></circle>
        <circle r="5" cx="970.86" cy="47.28" fill="rgba(41, 46, 55, 1)"></circle>
        <circle r="5" cx="962.77" cy="251.09" fill="rgba(41, 46, 55, 1)"></circle>
        <circle r="5" cx="966.83" cy="396.95" fill="rgba(41, 46, 55, 1)"></circle>
        <circle r="5" cx="947.2" cy="498.86" fill="rgba(41, 46, 55, 1)"></circle>
        <circle r="5" cx="998.31" cy="861.91" fill="rgba(41, 46, 55, 1)"></circle>
        <circle r="5" cx="1118.65" cy="-54.96" fill="rgba(41, 46, 55, 1)"></circle>
        <circle r="5" cx="1145.33" cy="61.97" fill="rgba(41, 46, 55, 1)"></circle>
        <circle r="5" cx="1092.77" cy="260.55" fill="rgba(41, 46, 55, 1)"></circle>
        <circle r="5" cx="1090.13" cy="550.09" fill="rgba(41, 46, 55, 1)"></circle>
        <circle r="5" cx="1123.62" cy="653.24" fill="rgba(41, 46, 55, 1)"></circle>
        <circle r="5" cx="1154.81" cy="814.32" fill="rgba(41, 46, 55, 1)"></circle>
        <circle r="5" cx="1278.83" cy="-68.87" fill="rgba(41, 46, 55, 1)"></circle>
        <circle r="5" cx="1285.98" cy="77.03" fill="rgba(41, 46, 55, 1)"></circle>
        <circle r="5" cx="1247.91" cy="221.99" fill="rgba(41, 46, 55, 1)"></circle>
        <circle r="5" cx="1263.7" cy="358.01" fill="rgba(41, 46, 55, 1)"></circle>
        <circle r="5" cx="1308.5" cy="557.07" fill="rgba(41, 46, 55, 1)"></circle>
        <circle r="5" cx="1266.65" cy="672.18" fill="rgba(41, 46, 55, 1)"></circle>
        <circle r="5" cx="1311.16" cy="856.65" fill="rgba(41, 46, 55, 1)"></circle>
        <circle r="5" cx="1405.12" cy="-79.31" fill="rgba(41, 46, 55, 1)"></circle>
        <circle r="5" cx="1460.89" cy="81.25" fill="rgba(41, 46, 55, 1)"></circle>
        <circle r="5" cx="1452.38" cy="242.27" fill="rgba(41, 46, 55, 1)"></circle>
        <circle r="5" cx="1414.56" cy="385.77" fill="rgba(41, 46, 55, 1)"></circle>
        <circle r="5" cx="1427.01" cy="545.7" fill="rgba(41, 46, 55, 1)"></circle>
        <circle r="5" cx="1447.85" cy="710.09" fill="rgba(41, 46, 55, 1)"></circle>
        <circle r="5" cx="1414.44" cy="828.2" fill="rgba(41, 46, 55, 1)"></circle>
        <path d="M1001.35 676.64L1001.35 676.64" stroke="hsl(218.60000000000002, 13.7%, 26%)" stroke-width="1.5"></path>
        <path d="M1001.35 676.64L1090.08 711.32" stroke="hsl(218.60000000000002, 13.7%, 26%)" stroke-width="1.5"></path>
        <path d="M1001.35 676.64L959.16 797.19" stroke="hsl(218.60000000000002, 13.7%, 26%)" stroke-width="1.5"></path>
        <path d="M1001.35 676.64L976.4 550.99" stroke="hsl(218.60000000000002, 13.7%, 26%)" stroke-width="1.5"></path>
        <path d="M1001.35 676.64L1106.82 803.84" stroke="hsl(218.60000000000002, 13.7%, 26%)" stroke-width="1.5"></path>
        <path d="M1094.5 -93.27L1094.5 -93.27" stroke="hsl(218.60000000000002, 13.7%, 26%)" stroke-width="1.5"></path>
        <path d="M1094.5 -93.27L1158.5 52.37" stroke="hsl(218.60000000000002, 13.7%, 26%)" stroke-width="1.5"></path>
        <path d="M1094.5 -93.27L1262.97 -93.44" stroke="hsl(218.60000000000002, 13.7%, 26%)" stroke-width="1.5"></path>
        <path d="M1094.5 -93.27L1411.3 61.89" stroke="hsl(218.60000000000002, 13.7%, 26%)" stroke-width="1.5"></path>
        <path d="M1153.68 392.71L1153.68 392.71" stroke="hsl(218.60000000000002, 13.7%, 26%)" stroke-width="1.5"></path>
        <path d="M1153.68 392.71L1262.88 392.86" stroke="hsl(218.60000000000002, 13.7%, 26%)" stroke-width="1.5"></path>
        <path d="M1153.68 392.71L1253.41 490.71" stroke="hsl(218.60000000000002, 13.7%, 26%)" stroke-width="1.5"></path>
        <path d="M1153.68 392.71L1134.65 552.69" stroke="hsl(218.60000000000002, 13.7%, 26%)" stroke-width="1.5"></path>
        <path d="M1134.65 552.69L1134.65 552.69" stroke="hsl(218.60000000000002, 13.7%, 26%)" stroke-width="1.5"></path>
        <path d="M1134.65 552.69L1253.41 490.71" stroke="hsl(218.60000000000002, 13.7%, 26%)" stroke-width="1.5"></path>
        <path d="M1134.65 552.69L1242.94 661.12" stroke="hsl(218.60000000000002, 13.7%, 26%)" stroke-width="1.5"></path>
        <path d="M1106.82 803.84L1106.82 803.84" stroke="hsl(218.60000000000002, 13.7%, 26%)" stroke-width="1.5"></path>
        <path d="M1106.82 803.84L1090.08 711.32" stroke="hsl(218.60000000000002, 13.7%, 26%)" stroke-width="1.5"></path>
        <path d="M1262.97 -93.44L1262.97 -93.44" stroke="hsl(218.60000000000002, 13.7%, 26%)" stroke-width="1.5"></path>
        <path d="M1262.97 -93.44L1158.5 52.37" stroke="hsl(218.60000000000002, 13.7%, 26%)" stroke-width="1.5"></path>
        <path d="M-72.38 644.77L-72.38 644.77" stroke="hsl(218.60000000000002, 13.7%, 26%)" stroke-width="1.5"></path>
        <path d="M-72.38 644.77L47.92 692.83" stroke="hsl(218.60000000000002, 13.7%, 26%)" stroke-width="1.5"></path>
        <path d="M-72.38 644.77L96.66 839.37" stroke="hsl(218.60000000000002, 13.7%, 26%)" stroke-width="1.5"></path>
        <path d="M-72.38 644.77L190.63 676.76" stroke="hsl(218.60000000000002, 13.7%, 26%)" stroke-width="1.5"></path>
        <path d="M-72.38 644.77L233.27 843.99" stroke="hsl(218.60000000000002, 13.7%, 26%)" stroke-width="1.5"></path>
        <path d="M-72.38 644.77L399.63 693.55" stroke="hsl(218.60000000000002, 13.7%, 26%)" stroke-width="1.5"></path>
        <path d="M47.92 692.83L47.92 692.83" stroke="hsl(218.60000000000002, 13.7%, 26%)" stroke-width="1.5"></path>
        <path d="M47.92 692.83L190.63 676.76" stroke="hsl(218.60000000000002, 13.7%, 26%)" stroke-width="1.5"></path>
        <path d="M47.92 692.83L96.66 839.37" stroke="hsl(218.60000000000002, 13.7%, 26%)" stroke-width="1.5"></path>
        <path d="M47.92 692.83L233.27 843.99" stroke="hsl(218.60000000000002, 13.7%, 26%)" stroke-width="1.5"></path>
        <path d="M47.92 692.83L399.63 693.55" stroke="hsl(218.60000000000002, 13.7%, 26%)" stroke-width="1.5"></path>
        <path d="M47.92 692.83L390.92 858.84" stroke="hsl(218.60000000000002, 13.7%, 26%)" stroke-width="1.5"></path>
        <path d="M96.66 839.37L96.66 839.37" stroke="hsl(218.60000000000002, 13.7%, 26%)" stroke-width="1.5"></path>
        <path d="M96.66 839.37L233.27 843.99" stroke="hsl(218.60000000000002, 13.7%, 26%)" stroke-width="1.5"></path>
        <path d="M96.66 839.37L190.63 676.76" stroke="hsl(218.60000000000002, 13.7%, 26%)" stroke-width="1.5"></path>
        <path d="M190.63 676.76L190.63 676.76" stroke="hsl(218.60000000000002, 13.7%, 26%)" stroke-width="1.5"></path>
        <path d="M190.63 676.76L233.27 843.99" stroke="hsl(218.60000000000002, 13.7%, 26%)" stroke-width="1.5"></path>
        <path d="M233.27 843.99L233.27 843.99" stroke="hsl(218.60000000000002, 13.7%, 26%)" stroke-width="1.5"></path>
        <path d="M233.27 843.99L390.92 858.84" stroke="hsl(218.60000000000002, 13.7%, 26%)" stroke-width="1.5"></path>
        <path d="M233.27 843.99L399.63 693.55" stroke="hsl(218.60000000000002, 13.7%, 26%)" stroke-width="1.5"></path>
        <path d="M399.63 693.55L399.63 693.55" stroke="hsl(218.60000000000002, 13.7%, 26%)" stroke-width="1.5"></path>
        <path d="M399.63 693.55L535.89 653.65" stroke="hsl(218.60000000000002, 13.7%, 26%)" stroke-width="1.5"></path>
        <path d="M399.63 693.55L390.92 858.84" stroke="hsl(218.60000000000002, 13.7%, 26%)" stroke-width="1.5"></path>
        <path d="M390.92 858.84L390.92 858.84" stroke="hsl(218.60000000000002, 13.7%, 26%)" stroke-width="1.5"></path>
        <path d="M390.92 858.84L532.39 812.05" stroke="hsl(218.60000000000002, 13.7%, 26%)" stroke-width="1.5"></path>
        <path d="M390.92 858.84L535.89 653.65" stroke="hsl(218.60000000000002, 13.7%, 26%)" stroke-width="1.5"></path>
        <path d="M551.42 560.84L551.42 560.84" stroke="hsl(218.60000000000002, 13.7%, 26%)" stroke-width="1.5"></path>
        <path d="M551.42 560.84L637.87 528.41" stroke="hsl(218.60000000000002, 13.7%, 26%)" stroke-width="1.5"></path>
        <path d="M551.42 560.84L535.89 653.65" stroke="hsl(218.60000000000002, 13.7%, 26%)" stroke-width="1.5"></path>
        <path d="M535.89 653.65L535.89 653.65" stroke="hsl(218.60000000000002, 13.7%, 26%)" stroke-width="1.5"></path>
        <path d="M535.89 653.65L654.62 664.9" stroke="hsl(218.60000000000002, 13.7%, 26%)" stroke-width="1.5"></path>
        <path d="M535.89 653.65L532.39 812.05" stroke="hsl(218.60000000000002, 13.7%, 26%)" stroke-width="1.5"></path>
        <path d="M532.39 812.05L532.39 812.05" stroke="hsl(218.60000000000002, 13.7%, 26%)" stroke-width="1.5"></path>
        <path d="M637.87 528.41L637.87 528.41" stroke="hsl(218.60000000000002, 13.7%, 26%)" stroke-width="1.5"></path>
        <path d="M637.87 528.41L654.62 664.9" stroke="hsl(218.60000000000002, 13.7%, 26%)" stroke-width="1.5"></path>
        <path d="M637.87 528.41L535.89 653.65" stroke="hsl(218.60000000000002, 13.7%, 26%)" stroke-width="1.5"></path>
        <path d="M637.87 528.41L834.42 487.89" stroke="hsl(218.60000000000002, 13.7%, 26%)" stroke-width="1.5"></path>
        <path d="M654.62 664.9L654.62 664.9" stroke="hsl(218.60000000000002, 13.7%, 26%)" stroke-width="1.5"></path>
        <path d="M686.85 856.31L686.85 856.31" stroke="hsl(218.60000000000002, 13.7%, 26%)" stroke-width="1.5"></path>
        <path d="M686.85 856.31L835.1 797.66" stroke="hsl(218.60000000000002, 13.7%, 26%)" stroke-width="1.5"></path>
        <path d="M686.85 856.31L532.39 812.05" stroke="hsl(218.60000000000002, 13.7%, 26%)" stroke-width="1.5"></path>
        <path d="M834.42 487.89L834.42 487.89" stroke="hsl(218.60000000000002, 13.7%, 26%)" stroke-width="1.5"></path>
        <path d="M834.42 487.89L939.1 377.99" stroke="hsl(218.60000000000002, 13.7%, 26%)" stroke-width="1.5"></path>
        <path d="M834.42 487.89L976.4 550.99" stroke="hsl(218.60000000000002, 13.7%, 26%)" stroke-width="1.5"></path>
        <path d="M834.42 487.89L831.25 651.81" stroke="hsl(218.60000000000002, 13.7%, 26%)" stroke-width="1.5"></path>
        <path d="M831.25 651.81L831.25 651.81" stroke="hsl(218.60000000000002, 13.7%, 26%)" stroke-width="1.5"></path>
        <path d="M831.25 651.81L835.1 797.66" stroke="hsl(218.60000000000002, 13.7%, 26%)" stroke-width="1.5"></path>
        <path d="M831.25 651.81L1001.35 676.64" stroke="hsl(218.60000000000002, 13.7%, 26%)" stroke-width="1.5"></path>
        <path d="M835.1 797.66L835.1 797.66" stroke="hsl(218.60000000000002, 13.7%, 26%)" stroke-width="1.5"></path>
        <path d="M835.1 797.66L959.16 797.19" stroke="hsl(218.60000000000002, 13.7%, 26%)" stroke-width="1.5"></path>
        <path d="M835.1 797.66L1001.35 676.64" stroke="hsl(218.60000000000002, 13.7%, 26%)" stroke-width="1.5"></path>
        <path d="M835.1 797.66L654.62 664.9" stroke="hsl(218.60000000000002, 13.7%, 26%)" stroke-width="1.5"></path>
        <path d="M835.1 797.66L1090.08 711.32" stroke="hsl(218.60000000000002, 13.7%, 26%)" stroke-width="1.5"></path>
        <path d="M939.17 245.29L939.17 245.29" stroke="hsl(218.60000000000002, 13.7%, 26%)" stroke-width="1.5"></path>
        <path d="M939.17 245.29L939.1 377.99" stroke="hsl(218.60000000000002, 13.7%, 26%)" stroke-width="1.5"></path>
        <path d="M939.17 245.29L1153.68 392.71" stroke="hsl(218.60000000000002, 13.7%, 26%)" stroke-width="1.5"></path>
        <path d="M939.1 377.99L939.1 377.99" stroke="hsl(218.60000000000002, 13.7%, 26%)" stroke-width="1.5"></path>
        <path d="M939.1 377.99L976.4 550.99" stroke="hsl(218.60000000000002, 13.7%, 26%)" stroke-width="1.5"></path>
        <path d="M976.4 550.99L976.4 550.99" stroke="hsl(218.60000000000002, 13.7%, 26%)" stroke-width="1.5"></path>
        <path d="M959.16 797.19L959.16 797.19" stroke="hsl(218.60000000000002, 13.7%, 26%)" stroke-width="1.5"></path>
        <path d="M959.16 797.19L1106.82 803.84" stroke="hsl(218.60000000000002, 13.7%, 26%)" stroke-width="1.5"></path>
        <path d="M959.16 797.19L1090.08 711.32" stroke="hsl(218.60000000000002, 13.7%, 26%)" stroke-width="1.5"></path>
        <path d="M959.16 797.19L831.25 651.81" stroke="hsl(218.60000000000002, 13.7%, 26%)" stroke-width="1.5"></path>
        <path d="M1158.5 52.37L1158.5 52.37" stroke="hsl(218.60000000000002, 13.7%, 26%)" stroke-width="1.5"></path>
        <path d="M1158.5 52.37L1411.3 61.89" stroke="hsl(218.60000000000002, 13.7%, 26%)" stroke-width="1.5"></path>
        <path d="M1158.5 52.37L939.17 245.29" stroke="hsl(218.60000000000002, 13.7%, 26%)" stroke-width="1.5"></path>
        <path d="M1158.5 52.37L1153.68 392.71" stroke="hsl(218.60000000000002, 13.7%, 26%)" stroke-width="1.5"></path>
        <path d="M1090.08 711.32L1090.08 711.32" stroke="hsl(218.60000000000002, 13.7%, 26%)" stroke-width="1.5"></path>
        <path d="M1262.88 392.86L1262.88 392.86" stroke="hsl(218.60000000000002, 13.7%, 26%)" stroke-width="1.5"></path>
        <path d="M1262.88 392.86L1253.41 490.71" stroke="hsl(218.60000000000002, 13.7%, 26%)" stroke-width="1.5"></path>
        <path d="M1253.41 490.71L1253.41 490.71" stroke="hsl(218.60000000000002, 13.7%, 26%)" stroke-width="1.5"></path>
        <path d="M1253.41 490.71L1242.94 661.12" stroke="hsl(218.60000000000002, 13.7%, 26%)" stroke-width="1.5"></path>
        <path d="M1242.94 661.12L1242.94 661.12" stroke="hsl(218.60000000000002, 13.7%, 26%)" stroke-width="1.5"></path>
        <path d="M1242.94 661.12L1090.08 711.32" stroke="hsl(218.60000000000002, 13.7%, 26%)" stroke-width="1.5"></path>
        <path d="M1242.94 661.12L1285.33 819.36" stroke="hsl(218.60000000000002, 13.7%, 26%)" stroke-width="1.5"></path>
        <path d="M1285.33 819.36L1285.33 819.36" stroke="hsl(218.60000000000002, 13.7%, 26%)" stroke-width="1.5"></path>
        <path d="M1285.33 819.36L1404.25 791.11" stroke="hsl(218.60000000000002, 13.7%, 26%)" stroke-width="1.5"></path>
        <path d="M1285.33 819.36L1106.82 803.84" stroke="hsl(218.60000000000002, 13.7%, 26%)" stroke-width="1.5"></path>
        <path d="M1411.3 61.89L1411.3 61.89" stroke="hsl(218.60000000000002, 13.7%, 26%)" stroke-width="1.5"></path>
        <path d="M1411.3 61.89L1431.93 257.49" stroke="hsl(218.60000000000002, 13.7%, 26%)" stroke-width="1.5"></path>
        <path d="M1411.3 61.89L1262.97 -93.44" stroke="hsl(218.60000000000002, 13.7%, 26%)" stroke-width="1.5"></path>
        <path d="M1431.93 257.49L1431.93 257.49" stroke="hsl(218.60000000000002, 13.7%, 26%)" stroke-width="1.5"></path>
        <path d="M1431.93 257.49L1452.14 390.19" stroke="hsl(218.60000000000002, 13.7%, 26%)" stroke-width="1.5"></path>
        <path d="M1431.93 257.49L1262.88 392.86" stroke="hsl(218.60000000000002, 13.7%, 26%)" stroke-width="1.5"></path>
        <path d="M1431.93 257.49L1253.41 490.71" stroke="hsl(218.60000000000002, 13.7%, 26%)" stroke-width="1.5"></path>
        <path d="M1452.14 390.19L1452.14 390.19" stroke="hsl(218.60000000000002, 13.7%, 26%)" stroke-width="1.5"></path>
        <path d="M1452.14 390.19L1262.88 392.86" stroke="hsl(218.60000000000002, 13.7%, 26%)" stroke-width="1.5"></path>
        <path d="M1452.14 390.19L1253.41 490.71" stroke="hsl(218.60000000000002, 13.7%, 26%)" stroke-width="1.5"></path>
        <path d="M1452.14 390.19L1426.79 639.05" stroke="hsl(218.60000000000002, 13.7%, 26%)" stroke-width="1.5"></path>
        <path d="M1452.14 390.19L1153.68 392.71" stroke="hsl(218.60000000000002, 13.7%, 26%)" stroke-width="1.5"></path>
        <path d="M1426.79 639.05L1426.79 639.05" stroke="hsl(218.60000000000002, 13.7%, 26%)" stroke-width="1.5"></path>
        <path d="M1426.79 639.05L1404.25 791.11" stroke="hsl(218.60000000000002, 13.7%, 26%)" stroke-width="1.5"></path>
        <path d="M1426.79 639.05L1242.94 661.12" stroke="hsl(218.60000000000002, 13.7%, 26%)" stroke-width="1.5"></path>
        <path d="M1426.79 639.05L1253.41 490.71" stroke="hsl(218.60000000000002, 13.7%, 26%)" stroke-width="1.5"></path>
        <path d="M1426.79 639.05L1285.33 819.36" stroke="hsl(218.60000000000002, 13.7%, 26%)" stroke-width="1.5"></path>
        <path d="M1404.25 791.11L1404.25 791.11" stroke="hsl(218.60000000000002, 13.7%, 26%)" stroke-width="1.5"></path>
        <path d="M1404.25 791.11L1242.94 661.12" stroke="hsl(218.60000000000002, 13.7%, 26%)" stroke-width="1.5"></path>
        <path d="M1404.25 791.11L1106.82 803.84" stroke="hsl(218.60000000000002, 13.7%, 26%)" stroke-width="1.5"></path>
        <path d="M1404.25 791.11L1090.08 711.32" stroke="hsl(218.60000000000002, 13.7%, 26%)" stroke-width="1.5"></path>
        <circle r="25" cx="1001.35" cy="676.64" fill="url(#SvgjsRadialGradient1033)"></circle>
        <circle r="25" cx="1094.5" cy="-93.27" fill="url(#SvgjsRadialGradient1033)"></circle>
        <circle r="25" cx="1153.68" cy="392.71" fill="url(#SvgjsRadialGradient1033)"></circle>
        <circle r="25" cx="1134.65" cy="552.69" fill="url(#SvgjsRadialGradient1033)"></circle>
        <circle r="25" cx="1106.82" cy="803.84" fill="url(#SvgjsRadialGradient1033)"></circle>
        <circle r="25" cx="1262.97" cy="-93.44" fill="url(#SvgjsRadialGradient1033)"></circle>
        <circle r="5" cx="-72.38" cy="644.77" fill="#96989d"></circle>
        <circle r="5" cx="47.92" cy="692.83" fill="#96989d"></circle>
        <circle r="5" cx="96.66" cy="839.37" fill="#96989d"></circle>
        <circle r="5" cx="190.63" cy="676.76" fill="#96989d"></circle>
        <circle r="5" cx="233.27" cy="843.99" fill="#96989d"></circle>
        <circle r="5" cx="399.63" cy="693.55" fill="#96989d"></circle>
        <circle r="5" cx="390.92" cy="858.84" fill="#96989d"></circle>
        <circle r="5" cx="551.42" cy="560.84" fill="#96989d"></circle>
        <circle r="5" cx="535.89" cy="653.65" fill="#96989d"></circle>
        <circle r="5" cx="532.39" cy="812.05" fill="#96989d"></circle>
        <circle r="5" cx="637.87" cy="528.41" fill="#96989d"></circle>
        <circle r="5" cx="654.62" cy="664.9" fill="#96989d"></circle>
        <circle r="5" cx="686.85" cy="856.31" fill="#96989d"></circle>
        <circle r="5" cx="834.42" cy="487.89" fill="#96989d"></circle>
        <circle r="5" cx="831.25" cy="651.81" fill="#96989d"></circle>
        <circle r="5" cx="835.1" cy="797.66" fill="#96989d"></circle>
        <circle r="5" cx="939.17" cy="245.29" fill="#96989d"></circle>
        <circle r="5" cx="939.1" cy="377.99" fill="#96989d"></circle>
        <circle r="5" cx="976.4" cy="550.99" fill="#96989d"></circle>
        <circle r="5" cx="959.16" cy="797.19" fill="#96989d"></circle>
        <circle r="5" cx="1158.5" cy="52.37" fill="#96989d"></circle>
        <circle r="5" cx="1090.08" cy="711.32" fill="#96989d"></circle>
        <circle r="5" cx="1262.88" cy="392.86" fill="#96989d"></circle>
        <circle r="5" cx="1253.41" cy="490.71" fill="#96989d"></circle>
        <circle r="5" cx="1242.94" cy="661.12" fill="#96989d"></circle>
        <circle r="5" cx="1285.33" cy="819.36" fill="#96989d"></circle>
        <circle r="5" cx="1411.3" cy="61.89" fill="#96989d"></circle>
        <circle r="5" cx="1431.93" cy="257.49" fill="#96989d"></circle>
        <circle r="5" cx="1452.14" cy="390.19" fill="#96989d"></circle>
        <circle r="5" cx="1426.79" cy="639.05" fill="#96989d"></circle>
        <circle r="5" cx="1404.25" cy="791.11" fill="#96989d"></circle>
    </g>
    <defs>
        <mask id="SvgjsMask1032">
            <rect width="1280" height="720" fill="#ffffff"></rect>
        </mask>
        <radialGradient id="SvgjsRadialGradient1033">
            <stop stop-color="#ffffff" offset="0.1"></stop>
            <stop stop-color="rgba(44, 49, 58, 1)" offset="0.2"></stop>
            <stop stop-color="rgba(44, 49, 58, 0)" offset="1"></stop>
        </radialGradient>
    </defs>
</svg>